<svg width="20" height="15" viewBox="0 0 20 15" fill="none" xmlns="http://www.w3.org/2000/svg">
<path d="M17.4667 3.73333C17.4667 3.86667 17.4667 4.06667 17.4667 4.2C17.4667 9.2 13.6667 14.9333 6.73334 14.9333C4.6 14.9333 2.6 14.3333 0.933334 13.2667C1.2 13.2667 1.53333 13.3333 1.86667 13.3333C3.66667 13.3333 5.26667 12.7333 6.53333 11.7333C4.86667 11.7333 3.46667 10.6 3 9.13333C3.2 9.2 3.46667 9.2 3.73333 9.2C4.06667 9.2 4.4 9.13333 4.73333 9.06667C3 8.66667 1.66667 7.13333 1.66667 5.33333C1.66667 5.33333 1.66667 5.33333 1.66667 5.26667C2.2 5.53333 2.73333 5.73333 3.4 5.73333C2.4 5.06667 1.73333 3.93333 1.73333 2.6C1.73333 1.93333 1.93333 1.26667 2.26667 0.733333C4.13333 3 6.93334 4.53333 10.0667 4.66667C10 4.4 10 4.13333 10 3.8C10 1.73333 11.6667 0 13.8 0C14.8667 0 15.8667 0.466667 16.5333 1.2C17.4 1 18.2 0.733333 18.9333 0.266667C18.6667 1.13333 18.0667 1.86667 17.2667 2.33333C17.9333 2.26667 18.6667 2.06667 19.3333 1.8C18.8 2.53333 18.2 3.2 17.4667 3.73333Z" fill="black"/>
</svg>
